<?xml version="1.0" encoding="UTF-8"?><svg xmlns="http://www.w3.org/2000/svg" xmlns:xlink="http://www.w3.org/1999/xlink" contentScriptType="text/ecmascript" width="810" zoomAndPan="magnify" contentStyleType="text/css" viewBox="0 0 810 809.999993" height="809.999993" preserveAspectRatio="xMidYMid meet" version="1.0"><defs><clipPath id="clip-0"><path d="M 24.574219 4.023438 L 578 4.023438 L 578 805.773438 L 24.574219 805.773438 Z M 24.574219 4.023438 " clip-rule="nonzero"/></clipPath><clipPath id="clip-1"><path d="M 397 736 L 785 736 L 785 805.773438 L 397 805.773438 Z M 397 736 " clip-rule="nonzero"/></clipPath></defs><g clip-path="url(#clip-0)"><path fill="rgb(0%, 61.178589%, 96.859741%)" d="M 543.03125 805.773438 L 59.3125 805.773438 C 40.226562 805.773438 24.761719 790.304688 24.761719 771.214844 L 24.761719 38.582031 C 24.761719 19.496094 40.226562 4.023438 59.3125 4.023438 L 543.03125 4.023438 C 562.113281 4.023438 577.582031 19.496094 577.582031 38.582031 L 577.582031 771.214844 C 577.582031 790.304688 562.113281 805.773438 543.03125 805.773438 " fill-opacity="1" fill-rule="nonzero"/></g><path fill="rgb(36.859131%, 74.508667%, 96.859741%)" d="M 508.480469 252.84375 L 93.863281 252.84375 L 93.863281 59.316406 L 508.480469 59.316406 L 508.480469 252.84375 " fill-opacity="1" fill-rule="nonzero"/><path fill="rgb(57.249451%, 81.959534%, 96.859741%)" d="M 494.660156 239.019531 L 93.863281 239.019531 L 93.863281 59.316406 L 494.660156 59.316406 L 494.660156 239.019531 " fill-opacity="1" fill-rule="nonzero"/><path fill="rgb(0%, 47.839355%, 96.469116%)" d="M 245.890625 377.253906 C 245.890625 346.71875 270.640625 321.960938 301.171875 321.960938 C 331.699219 321.960938 356.453125 346.71875 356.453125 377.253906 C 356.453125 407.789062 331.699219 432.546875 301.171875 432.546875 C 270.640625 432.546875 245.890625 407.789062 245.890625 377.253906 " fill-opacity="1" fill-rule="nonzero"/><path fill="rgb(0%, 47.839355%, 96.469116%)" d="M 80.042969 377.253906 C 80.042969 346.71875 104.796875 321.960938 135.324219 321.960938 C 165.855469 321.960938 190.605469 346.71875 190.605469 377.253906 C 190.605469 407.789062 165.855469 432.546875 135.324219 432.546875 C 104.796875 432.546875 80.042969 407.789062 80.042969 377.253906 " fill-opacity="1" fill-rule="nonzero"/><path fill="rgb(0%, 47.839355%, 96.469116%)" d="M 411.734375 377.253906 C 411.734375 346.71875 436.488281 321.960938 467.015625 321.960938 C 497.546875 321.960938 522.300781 346.71875 522.300781 377.253906 C 522.300781 407.789062 497.546875 432.546875 467.015625 432.546875 C 436.488281 432.546875 411.734375 407.789062 411.734375 377.253906 " fill-opacity="1" fill-rule="nonzero"/><path fill="rgb(0%, 47.839355%, 96.469116%)" d="M 245.890625 543.132812 C 245.890625 512.597656 270.640625 487.839844 301.171875 487.839844 C 331.699219 487.839844 356.453125 512.597656 356.453125 543.132812 C 356.453125 573.667969 331.699219 598.425781 301.171875 598.425781 C 270.640625 598.425781 245.890625 573.667969 245.890625 543.132812 " fill-opacity="1" fill-rule="nonzero"/><path fill="rgb(0%, 47.839355%, 96.469116%)" d="M 80.042969 543.132812 C 80.042969 512.597656 104.796875 487.839844 135.324219 487.839844 C 165.855469 487.839844 190.605469 512.597656 190.605469 543.132812 C 190.605469 573.667969 165.855469 598.425781 135.324219 598.425781 C 104.796875 598.425781 80.042969 573.667969 80.042969 543.132812 " fill-opacity="1" fill-rule="nonzero"/><path fill="rgb(0%, 47.839355%, 96.469116%)" d="M 245.890625 709.011719 C 245.890625 678.476562 270.640625 653.71875 301.171875 653.71875 C 331.699219 653.71875 356.453125 678.476562 356.453125 709.011719 C 356.453125 739.546875 331.699219 764.304688 301.171875 764.304688 C 270.640625 764.304688 245.890625 739.546875 245.890625 709.011719 " fill-opacity="1" fill-rule="nonzero"/><path fill="rgb(0%, 47.839355%, 96.469116%)" d="M 80.042969 709.011719 C 80.042969 678.476562 104.796875 653.71875 135.324219 653.71875 C 165.855469 653.71875 190.605469 678.476562 190.605469 709.011719 C 190.605469 739.546875 165.855469 764.304688 135.324219 764.304688 C 104.796875 764.304688 80.042969 739.546875 80.042969 709.011719 " fill-opacity="1" fill-rule="nonzero"/><path fill="rgb(57.249451%, 81.959534%, 96.859741%)" d="M 411.734375 695.1875 C 411.734375 664.652344 436.488281 639.894531 467.015625 639.894531 C 497.546875 639.894531 522.300781 664.652344 522.300781 695.1875 C 522.300781 725.722656 497.546875 750.480469 467.015625 750.480469 C 436.488281 750.480469 411.734375 725.722656 411.734375 695.1875 " fill-opacity="1" fill-rule="nonzero"/><path fill="rgb(90.979004%, 18.429565%, 24.308777%)" d="M 757.25 584.601562 L 425.554688 584.601562 C 417.921875 584.601562 411.734375 578.414062 411.734375 570.777344 L 411.734375 543.132812 C 411.734375 535.5 417.921875 529.308594 425.554688 529.308594 L 757.25 529.308594 C 764.882812 529.308594 771.070312 535.5 771.070312 543.132812 L 771.070312 570.777344 C 771.070312 578.414062 764.882812 584.601562 757.25 584.601562 " fill-opacity="1" fill-rule="nonzero"/><path fill="rgb(40.779114%, 23.139954%, 5.099487%)" d="M 722.695312 681.367188 L 460.105469 681.367188 C 433.390625 681.367188 411.734375 659.707031 411.734375 632.984375 C 411.734375 606.261719 433.390625 584.601562 460.105469 584.601562 L 722.695312 584.601562 C 749.414062 584.601562 771.070312 606.261719 771.070312 632.984375 C 771.070312 659.707031 749.414062 681.367188 722.695312 681.367188 " fill-opacity="1" fill-rule="nonzero"/><path fill="rgb(100%, 20.388794%, 26.669312%)" d="M 660.503906 584.601562 L 522.300781 584.601562 L 522.300781 529.308594 L 660.503906 529.308594 L 660.503906 584.601562 " fill-opacity="1" fill-rule="nonzero"/><g clip-path="url(#clip-1)"><path fill="rgb(78.039551%, 59.21936%, 46.669006%)" d="M 416.40625 805.773438 C 404.644531 785.445312 397.914062 761.835938 397.914062 736.660156 L 784.890625 736.660156 C 784.890625 761.835938 778.160156 785.445312 766.398438 805.773438 L 416.40625 805.773438 " fill-opacity="1" fill-rule="nonzero"/></g><path fill="rgb(88.62915%, 88.62915%, 88.62915%)" d="M 757.25 736.660156 L 425.554688 736.660156 L 425.554688 681.367188 L 757.25 681.367188 L 757.25 736.660156 " fill-opacity="1" fill-rule="nonzero"/><path fill="rgb(79.60968%, 79.60968%, 79.60968%)" d="M 757.25 736.660156 L 425.554688 736.660156 L 425.554688 709.011719 L 757.25 709.011719 L 757.25 736.660156 " fill-opacity="1" fill-rule="nonzero"/><path fill="rgb(0.779724%, 64.309692%, 21.569824%)" d="M 411.734375 584.601562 L 453.195312 584.601562 L 453.195312 598.425781 C 453.195312 613.695312 440.820312 626.074219 425.554688 626.074219 C 410.292969 626.074219 397.914062 613.695312 397.914062 598.425781 C 397.914062 590.792969 404.101562 584.601562 411.734375 584.601562 " fill-opacity="1" fill-rule="nonzero"/><path fill="rgb(0.779724%, 64.309692%, 21.569824%)" d="M 453.195312 584.601562 L 508.480469 584.601562 L 508.480469 598.425781 C 508.480469 613.695312 496.101562 626.074219 480.835938 626.074219 C 465.574219 626.074219 453.195312 613.695312 453.195312 598.425781 L 453.195312 584.601562 " fill-opacity="1" fill-rule="nonzero"/><path fill="rgb(0.779724%, 64.309692%, 21.569824%)" d="M 508.480469 584.601562 L 563.761719 584.601562 L 563.761719 598.425781 C 563.761719 613.695312 551.382812 626.074219 536.121094 626.074219 C 520.855469 626.074219 508.480469 613.695312 508.480469 598.425781 L 508.480469 584.601562 " fill-opacity="1" fill-rule="nonzero"/><path fill="rgb(0.779724%, 64.309692%, 21.569824%)" d="M 563.761719 584.601562 L 619.042969 584.601562 L 619.042969 598.425781 C 619.042969 613.695312 606.667969 626.074219 591.402344 626.074219 C 576.136719 626.074219 563.761719 613.695312 563.761719 598.425781 L 563.761719 584.601562 " fill-opacity="1" fill-rule="nonzero"/><path fill="rgb(0.779724%, 64.309692%, 21.569824%)" d="M 619.042969 584.601562 L 674.324219 584.601562 L 674.324219 598.425781 C 674.324219 613.695312 661.949219 626.074219 646.683594 626.074219 C 631.417969 626.074219 619.042969 613.695312 619.042969 598.425781 L 619.042969 584.601562 " fill-opacity="1" fill-rule="nonzero"/><path fill="rgb(0.779724%, 64.309692%, 21.569824%)" d="M 674.324219 584.601562 L 729.609375 584.601562 L 729.609375 598.425781 C 729.609375 613.695312 717.230469 626.074219 701.964844 626.074219 C 686.703125 626.074219 674.324219 613.695312 674.324219 598.425781 L 674.324219 584.601562 " fill-opacity="1" fill-rule="nonzero"/><path fill="rgb(0.779724%, 64.309692%, 21.569824%)" d="M 729.609375 584.601562 L 771.070312 584.601562 C 778.703125 584.601562 784.890625 590.792969 784.890625 598.425781 C 784.890625 613.695312 772.511719 626.074219 757.25 626.074219 C 741.984375 626.074219 729.609375 613.695312 729.609375 598.425781 L 729.609375 584.601562 " fill-opacity="1" fill-rule="nonzero"/><path fill="rgb(98.429871%, 70.979309%, 25.099182%)" d="M 563.761719 681.367188 L 660.503906 736.660156 L 743.429688 681.367188 Z M 563.761719 681.367188 " fill-opacity="1" fill-rule="nonzero"/><path fill="rgb(0%, 47.839355%, 96.469116%)" d="M 215.480469 106.316406 C 210.90625 100.207031 202.242188 98.972656 196.132812 103.554688 L 162.964844 128.433594 L 162.964844 114.609375 C 162.964844 106.976562 156.777344 100.789062 149.144531 100.789062 C 141.511719 100.789062 135.324219 106.976562 135.324219 114.609375 L 135.324219 197.550781 C 135.324219 205.183594 141.511719 211.375 149.144531 211.375 C 156.777344 211.375 162.964844 205.183594 162.964844 197.550781 L 162.964844 183.726562 L 196.132812 208.605469 C 198.625 210.476562 201.53125 211.375 204.414062 211.375 C 208.617188 211.375 212.769531 209.464844 215.480469 205.847656 C 220.0625 199.738281 218.828125 191.070312 212.722656 186.496094 L 172.175781 156.082031 L 212.722656 125.667969 C 218.828125 121.089844 220.0625 112.425781 215.480469 106.316406 " fill-opacity="1" fill-rule="nonzero"/><path fill="rgb(0%, 47.839355%, 96.469116%)" d="M 273.53125 156.082031 L 287.351562 156.082031 C 294.984375 156.082031 301.171875 149.890625 301.171875 142.257812 C 301.171875 134.625 294.984375 128.433594 287.351562 128.433594 L 273.53125 128.433594 C 250.667969 128.433594 232.066406 147.035156 232.066406 169.90625 C 232.066406 192.773438 250.667969 211.375 273.53125 211.375 L 287.351562 211.375 C 294.984375 211.375 301.171875 205.183594 301.171875 197.550781 C 301.171875 189.917969 294.984375 183.726562 287.351562 183.726562 L 273.53125 183.726562 C 265.910156 183.726562 259.710938 177.523438 259.710938 169.90625 C 259.710938 162.285156 265.910156 156.082031 273.53125 156.082031 " fill-opacity="1" fill-rule="nonzero"/><path fill="rgb(0%, 47.839355%, 96.469116%)" d="M 370.273438 176.816406 C 370.273438 180.628906 367.175781 183.726562 363.363281 183.726562 C 359.550781 183.726562 356.453125 180.628906 356.453125 176.816406 L 356.453125 162.992188 C 356.453125 159.179688 359.550781 156.082031 363.363281 156.082031 C 367.175781 156.082031 370.273438 159.179688 370.273438 162.992188 Z M 397.914062 164.179688 L 397.914062 142.257812 C 397.914062 134.625 391.726562 128.433594 384.09375 128.433594 C 381.152344 128.433594 378.433594 129.359375 376.183594 130.933594 C 372.21875 129.332031 367.898438 128.433594 363.363281 128.433594 C 344.3125 128.433594 328.8125 143.9375 328.8125 162.992188 L 328.8125 176.816406 C 328.8125 195.871094 344.3125 211.375 363.363281 211.375 C 371.507812 211.375 378.984375 208.527344 384.898438 203.792969 C 385.929688 205.003906 387.003906 206.191406 388.144531 207.324219 C 390.84375 210.023438 394.378906 211.375 397.914062 211.375 C 401.449219 211.375 404.988281 210.023438 407.6875 207.324219 C 413.085938 201.925781 413.085938 193.175781 407.6875 187.777344 C 401.382812 181.472656 397.914062 173.097656 397.914062 164.179688 " fill-opacity="1" fill-rule="nonzero"/><path fill="rgb(0%, 47.839355%, 96.469116%)" d="M 453.195312 100.789062 C 445.5625 100.789062 439.375 106.976562 439.375 114.609375 L 439.375 197.550781 C 439.375 205.183594 445.5625 211.375 453.195312 211.375 C 460.828125 211.375 467.015625 205.183594 467.015625 197.550781 L 467.015625 114.609375 C 467.015625 106.976562 460.828125 100.789062 453.195312 100.789062 " fill-opacity="1" fill-rule="nonzero"/><path fill="rgb(57.249451%, 81.959534%, 96.859741%)" d="M 632.863281 280.492188 C 625.230469 280.492188 619.042969 274.300781 619.042969 266.667969 L 619.042969 211.375 C 619.042969 203.742188 625.230469 197.550781 632.863281 197.550781 C 640.496094 197.550781 646.683594 203.742188 646.683594 211.375 L 646.683594 266.667969 C 646.683594 274.300781 640.496094 280.492188 632.863281 280.492188 " fill-opacity="1" fill-rule="nonzero"/><path fill="rgb(57.249451%, 81.959534%, 96.859741%)" d="M 632.863281 349.605469 C 625.230469 349.605469 619.042969 343.417969 619.042969 335.785156 L 619.042969 321.960938 C 619.042969 314.328125 625.230469 308.136719 632.863281 308.136719 C 640.496094 308.136719 646.683594 314.328125 646.683594 321.960938 L 646.683594 335.785156 C 646.683594 343.417969 640.496094 349.605469 632.863281 349.605469 " fill-opacity="1" fill-rule="nonzero"/><path fill="rgb(57.249451%, 81.959534%, 96.859741%)" d="M 245.890625 363.429688 C 245.890625 332.894531 270.640625 308.136719 301.171875 308.136719 C 331.699219 308.136719 356.453125 332.894531 356.453125 363.429688 C 356.453125 393.964844 331.699219 418.722656 301.171875 418.722656 C 270.640625 418.722656 245.890625 393.964844 245.890625 363.429688 " fill-opacity="1" fill-rule="nonzero"/><path fill="rgb(57.249451%, 81.959534%, 96.859741%)" d="M 80.042969 363.429688 C 80.042969 332.894531 104.796875 308.136719 135.324219 308.136719 C 165.855469 308.136719 190.605469 332.894531 190.605469 363.429688 C 190.605469 393.964844 165.855469 418.722656 135.324219 418.722656 C 104.796875 418.722656 80.042969 393.964844 80.042969 363.429688 " fill-opacity="1" fill-rule="nonzero"/><path fill="rgb(57.249451%, 81.959534%, 96.859741%)" d="M 411.734375 363.429688 C 411.734375 332.894531 436.488281 308.136719 467.015625 308.136719 C 497.546875 308.136719 522.300781 332.894531 522.300781 363.429688 C 522.300781 393.964844 497.546875 418.722656 467.015625 418.722656 C 436.488281 418.722656 411.734375 393.964844 411.734375 363.429688 " fill-opacity="1" fill-rule="nonzero"/><path fill="rgb(57.249451%, 81.959534%, 96.859741%)" d="M 245.890625 529.308594 C 245.890625 498.773438 270.640625 474.015625 301.171875 474.015625 C 331.699219 474.015625 356.453125 498.773438 356.453125 529.308594 C 356.453125 559.84375 331.699219 584.601562 301.171875 584.601562 C 270.640625 584.601562 245.890625 559.84375 245.890625 529.308594 " fill-opacity="1" fill-rule="nonzero"/><path fill="rgb(57.249451%, 81.959534%, 96.859741%)" d="M 80.042969 529.308594 C 80.042969 498.773438 104.796875 474.015625 135.324219 474.015625 C 165.855469 474.015625 190.605469 498.773438 190.605469 529.308594 C 190.605469 559.84375 165.855469 584.601562 135.324219 584.601562 C 104.796875 584.601562 80.042969 559.84375 80.042969 529.308594 " fill-opacity="1" fill-rule="nonzero"/><path fill="rgb(57.249451%, 81.959534%, 96.859741%)" d="M 245.890625 695.1875 C 245.890625 664.652344 270.640625 639.894531 301.171875 639.894531 C 331.699219 639.894531 356.453125 664.652344 356.453125 695.1875 C 356.453125 725.722656 331.699219 750.480469 301.171875 750.480469 C 270.640625 750.480469 245.890625 725.722656 245.890625 695.1875 " fill-opacity="1" fill-rule="nonzero"/><path fill="rgb(57.249451%, 81.959534%, 96.859741%)" d="M 80.042969 695.1875 C 80.042969 664.652344 104.796875 639.894531 135.324219 639.894531 C 165.855469 639.894531 190.605469 664.652344 190.605469 695.1875 C 190.605469 725.722656 165.855469 750.480469 135.324219 750.480469 C 104.796875 750.480469 80.042969 725.722656 80.042969 695.1875 " fill-opacity="1" fill-rule="nonzero"/><path fill="rgb(78.039551%, 59.21936%, 46.669006%)" d="M 784.890625 529.308594 L 397.914062 529.308594 C 397.914062 452.964844 459.789062 391.078125 536.121094 391.078125 L 646.683594 391.078125 C 723.015625 391.078125 784.890625 452.964844 784.890625 529.308594 " fill-opacity="1" fill-rule="nonzero"/><path fill="rgb(88.62915%, 88.62915%, 88.62915%)" d="M 577.582031 460.191406 C 577.582031 452.558594 583.769531 446.371094 591.402344 446.371094 C 599.035156 446.371094 605.222656 452.558594 605.222656 460.191406 C 605.222656 467.828125 599.035156 474.015625 591.402344 474.015625 C 583.769531 474.015625 577.582031 467.828125 577.582031 460.191406 " fill-opacity="1" fill-rule="nonzero"/><path fill="rgb(88.62915%, 88.62915%, 88.62915%)" d="M 522.300781 446.371094 C 522.300781 438.734375 528.488281 432.546875 536.121094 432.546875 C 543.753906 432.546875 549.941406 438.734375 549.941406 446.371094 C 549.941406 454.003906 543.753906 460.191406 536.121094 460.191406 C 528.488281 460.191406 522.300781 454.003906 522.300781 446.371094 " fill-opacity="1" fill-rule="nonzero"/><path fill="rgb(88.62915%, 88.62915%, 88.62915%)" d="M 632.863281 446.371094 C 632.863281 438.734375 639.050781 432.546875 646.683594 432.546875 C 654.316406 432.546875 660.503906 438.734375 660.503906 446.371094 C 660.503906 454.003906 654.316406 460.191406 646.683594 460.191406 C 639.050781 460.191406 632.863281 454.003906 632.863281 446.371094 " fill-opacity="1" fill-rule="nonzero"/></svg>