<?xml version="1.0" encoding="UTF-8"?><svg xmlns="http://www.w3.org/2000/svg" xmlns:xlink="http://www.w3.org/1999/xlink" contentScriptType="text/ecmascript" width="810" zoomAndPan="magnify" contentStyleType="text/css" viewBox="0 0 810 809.999993" height="809.999993" preserveAspectRatio="xMidYMid meet" version="1.0"><defs><clipPath id="clip-0"><path d="M 3.039062 0 L 807 0 L 807 810 L 3.039062 810 Z M 3.039062 0 " clip-rule="nonzero"/></clipPath></defs><g clip-path="url(#clip-0)"><path fill="rgb(0%, 0%, 0%)" d="M 368.4375 463.65625 C 368.4375 453.898438 360.941406 445.859375 351.410156 444.976562 C 350.847656 445.085938 350.265625 445.144531 349.671875 445.144531 C 349.074219 445.144531 348.496094 445.085938 347.933594 444.976562 C 338.402344 445.859375 330.90625 453.898438 330.90625 463.65625 C 330.90625 474 339.328125 482.410156 349.671875 482.410156 C 360.015625 482.410156 368.4375 474 368.4375 463.65625 Z M 367.046875 117.742188 L 367.046875 74.136719 L 332.292969 74.136719 L 332.292969 117.742188 C 338.066406 117.453125 343.875 117.3125 349.671875 117.3125 C 355.460938 117.3125 361.273438 117.453125 367.046875 117.742188 Z M 427.675781 55.003906 L 427.675781 19.132812 L 271.667969 19.132812 L 271.667969 55.003906 Z M 537.265625 418.65625 C 560.480469 408.835938 585.089844 403.730469 610.449219 403.433594 C 582.734375 282.605469 474.894531 196.101562 349.671875 196.101562 C 202.121094 196.101562 82.089844 316.125 82.089844 463.65625 C 82.089844 611.1875 202.121094 731.210938 349.671875 731.210938 C 386.230469 731.210938 421.488281 724.023438 454.648438 709.839844 C 446.464844 698.359375 439.566406 686.019531 434.023438 672.914062 C 423.902344 648.992188 418.773438 623.589844 418.773438 597.402344 C 418.773438 571.214844 423.902344 545.808594 434.023438 521.886719 C 441.507812 504.191406 451.472656 487.894531 463.726562 473.222656 L 386.34375 473.222656 C 382.089844 489.5 367.265625 501.546875 349.671875 501.546875 C 328.773438 501.546875 311.773438 484.550781 311.773438 463.65625 C 311.773438 446.0625 323.824219 431.242188 340.105469 426.988281 L 340.105469 287.484375 C 340.105469 282.203125 344.386719 277.917969 349.671875 277.917969 C 354.953125 277.917969 359.238281 282.203125 359.238281 287.484375 L 359.238281 426.988281 C 372.460938 430.441406 382.894531 440.871094 386.34375 454.089844 L 482.027344 454.089844 C 498.339844 439.175781 516.886719 427.273438 537.265625 418.65625 Z M 630.203125 404.1875 C 644.816406 405.476562 659.125 408.40625 673.007812 412.941406 C 649.914062 264.210938 527.292969 149.460938 375.859375 137.476562 C 367.238281 136.792969 358.433594 136.445312 349.671875 136.445312 C 340.910156 136.445312 332.101562 136.792969 323.488281 137.476562 C 154.667969 150.839844 22.425781 294.113281 22.425781 463.65625 C 22.425781 644.082031 169.226562 790.867188 349.671875 790.867188 C 401.839844 790.867188 453.226562 778.417969 499.265625 754.746094 C 490.902344 748.699219 482.996094 741.976562 475.601562 734.574219 C 472.601562 731.582031 469.726562 728.496094 466.945312 725.339844 C 430.015625 741.9375 390.601562 750.347656 349.671875 750.347656 C 310.96875 750.347656 273.421875 742.765625 238.066406 727.808594 C 203.921875 713.375 173.261719 692.699219 146.933594 666.375 C 120.605469 640.046875 99.929688 609.390625 85.492188 575.25 C 70.53125 539.898438 62.953125 502.355469 62.953125 463.65625 C 62.953125 424.957031 70.53125 387.414062 85.492188 352.0625 C 99.929688 317.917969 120.605469 287.261719 146.933594 260.9375 C 173.261719 234.613281 203.921875 213.9375 238.066406 199.503906 C 273.421875 184.546875 310.96875 176.96875 349.671875 176.96875 C 384.03125 176.96875 417.640625 182.984375 449.566406 194.851562 C 480.40625 206.316406 508.871094 222.914062 534.160156 244.191406 C 583.15625 285.40625 617.0625 341.996094 630.203125 404.1875 Z M 787.667969 597.402344 C 787.667969 500.984375 709.21875 422.539062 612.789062 422.539062 C 516.359375 422.539062 437.910156 500.984375 437.910156 597.402344 C 437.910156 693.820312 516.359375 772.265625 612.789062 772.265625 C 709.21875 772.265625 787.667969 693.820312 787.667969 597.402344 Z M 791.554688 521.886719 C 801.675781 545.808594 806.804688 571.214844 806.804688 597.402344 C 806.804688 623.589844 801.675781 648.992188 791.554688 672.914062 C 781.785156 696.019531 767.792969 716.765625 749.976562 734.574219 C 732.164062 752.390625 711.417969 766.375 688.3125 776.148438 C 664.386719 786.269531 638.976562 791.398438 612.789062 791.398438 C 586.601562 791.398438 561.191406 786.269531 537.265625 776.148438 C 530.550781 773.308594 524.046875 770.105469 517.742188 766.5625 C 466.570312 794.996094 408.582031 810 349.671875 810 C 302.914062 810 257.554688 800.84375 214.84375 782.777344 C 173.59375 765.332031 136.550781 740.363281 104.742188 708.558594 C 72.933594 676.753906 47.960938 639.714844 30.515625 598.472656 C 12.449219 555.765625 3.292969 510.40625 3.292969 463.65625 C 3.292969 375.976562 36.125 292.3125 95.75 228.085938 C 153.027344 166.386719 229.949219 127.9375 313.160156 119.21875 L 313.160156 74.136719 L 262.097656 74.136719 C 256.8125 74.136719 252.53125 69.859375 252.53125 64.570312 L 252.53125 9.566406 C 252.53125 4.28125 256.8125 0 262.097656 0 L 437.246094 0 C 442.527344 0 446.8125 4.28125 446.8125 9.566406 L 446.8125 64.570312 C 446.8125 69.859375 442.527344 74.136719 437.246094 74.136719 L 386.183594 74.136719 L 386.183594 119.21875 C 423.765625 123.152344 460.136719 133.125 494.433594 148.921875 C 530.339844 165.460938 562.957031 187.882812 591.382812 215.578125 C 619.773438 243.246094 643.027344 275.230469 660.507812 310.652344 C 677.636719 345.398438 688.707031 382.464844 693.429688 420.917969 C 714.484375 430.539062 733.492188 443.742188 749.976562 460.226562 C 767.792969 478.039062 781.785156 498.78125 791.554688 521.886719 " fill-opacity="1" fill-rule="nonzero"/></g><path fill="rgb(0%, 0%, 0%)" d="M 621.289062 635.097656 L 542.804688 556.617188 L 504.65625 594.761719 C 494.226562 605.1875 488.480469 619.125 488.480469 634 C 488.480469 648.871094 494.226562 662.808594 504.65625 673.234375 C 526.296875 694.871094 561.503906 694.871094 583.144531 673.234375 Z M 672.96875 583.421875 C 694.609375 561.785156 694.609375 526.578125 672.96875 504.941406 C 662.535156 494.515625 648.601562 488.769531 633.726562 488.769531 C 618.855469 488.769531 604.914062 494.515625 594.480469 504.941406 L 556.332031 543.085938 L 634.820312 621.5625 Z M 711.601562 694.074219 L 650.484375 632.964844 L 616.992188 666.449219 C 620.109375 674.476562 624.808594 681.660156 630.972656 687.824219 C 642.714844 699.570312 658.324219 706.035156 674.933594 706.035156 C 688.300781 706.035156 701.027344 701.839844 711.601562 694.074219 Z M 725.136719 680.550781 C 732.902344 669.96875 737.097656 657.242188 737.097656 643.875 C 737.097656 627.269531 730.628906 611.660156 718.886719 599.921875 C 712.371094 593.40625 704.527344 588.445312 695.96875 585.367188 C 693.261719 589.460938 690.101562 593.347656 686.496094 596.949219 L 664.015625 619.433594 Z M 732.417969 586.394531 C 747.777344 601.746094 756.234375 622.15625 756.234375 643.875 C 756.234375 665.585938 747.777344 686 732.417969 701.355469 C 717.066406 716.710938 696.652344 725.167969 674.933594 725.167969 C 653.214844 725.167969 632.796875 716.710938 617.441406 701.355469 C 611.355469 695.273438 606.367188 688.425781 602.53125 680.910156 L 596.671875 686.769531 C 582.125 701.316406 563.015625 708.589844 543.898438 708.589844 C 524.785156 708.589844 505.675781 701.316406 491.128906 686.769531 C 477.078125 672.722656 469.34375 653.984375 469.34375 634 C 469.34375 614.015625 477.078125 595.277344 491.128906 581.226562 L 536.039062 536.320312 C 536.039062 536.320312 536.042969 536.320312 536.042969 536.316406 L 580.953125 491.410156 C 595 477.367188 613.738281 469.636719 633.726562 469.636719 C 653.710938 469.636719 672.457031 477.367188 686.496094 491.410156 C 707.207031 512.117188 713.175781 542.066406 704.40625 568.105469 C 714.847656 572.164062 724.402344 578.378906 732.417969 586.394531 " fill-opacity="1" fill-rule="nonzero"/><path fill="rgb(77.648926%, 79.60968%, 93.328857%)" d="M 756.234375 643.875 C 756.234375 622.15625 747.777344 601.746094 732.417969 586.394531 C 724.402344 578.378906 714.847656 572.164062 704.40625 568.105469 C 713.175781 542.066406 707.207031 512.117188 686.496094 491.410156 C 672.457031 477.367188 653.710938 469.636719 633.726562 469.636719 C 613.738281 469.636719 595 477.367188 580.953125 491.410156 L 536.042969 536.316406 C 536.042969 536.320312 536.039062 536.320312 536.039062 536.320312 L 491.128906 581.226562 C 477.078125 595.277344 469.34375 614.015625 469.34375 634 C 469.34375 653.984375 477.078125 672.722656 491.128906 686.769531 C 505.675781 701.316406 524.785156 708.589844 543.898438 708.589844 C 563.015625 708.589844 582.125 701.316406 596.671875 686.769531 L 602.53125 680.910156 C 606.367188 688.425781 611.355469 695.273438 617.441406 701.355469 C 632.796875 716.710938 653.214844 725.167969 674.933594 725.167969 C 696.652344 725.167969 717.066406 716.710938 732.417969 701.355469 C 747.777344 686 756.234375 665.585938 756.234375 643.875 Z M 612.789062 422.539062 C 709.21875 422.539062 787.667969 500.984375 787.667969 597.402344 C 787.667969 693.820312 709.21875 772.265625 612.789062 772.265625 C 516.359375 772.265625 437.910156 693.820312 437.910156 597.402344 C 437.910156 500.984375 516.359375 422.539062 612.789062 422.539062 " fill-opacity="1" fill-rule="nonzero"/><path fill="rgb(88.62915%, 90.979004%, 96.469116%)" d="M 737.097656 643.875 C 737.097656 657.242188 732.902344 669.96875 725.136719 680.550781 L 664.015625 619.433594 L 686.496094 596.949219 C 690.101562 593.347656 693.261719 589.460938 695.96875 585.367188 C 704.527344 588.445312 712.371094 593.40625 718.886719 599.921875 C 730.628906 611.660156 737.097656 627.269531 737.097656 643.875 " fill-opacity="1" fill-rule="nonzero"/><path fill="rgb(88.62915%, 90.979004%, 96.469116%)" d="M 650.484375 632.964844 L 711.601562 694.074219 C 701.027344 701.839844 688.300781 706.035156 674.933594 706.035156 C 658.324219 706.035156 642.714844 699.570312 630.972656 687.824219 C 624.808594 681.660156 620.109375 674.476562 616.992188 666.449219 L 650.484375 632.964844 " fill-opacity="1" fill-rule="nonzero"/><path fill="rgb(94.898987%, 34.899902%, 41.958618%)" d="M 672.96875 504.941406 C 694.609375 526.578125 694.609375 561.785156 672.96875 583.421875 L 634.820312 621.5625 L 556.332031 543.085938 L 594.480469 504.941406 C 604.914062 494.515625 618.855469 488.769531 633.726562 488.769531 C 648.601562 488.769531 662.535156 494.515625 672.96875 504.941406 " fill-opacity="1" fill-rule="nonzero"/><path fill="rgb(41.569519%, 58.428955%, 98.81897%)" d="M 673.007812 412.941406 C 659.125 408.40625 644.816406 405.476562 630.203125 404.1875 C 617.0625 341.996094 583.15625 285.40625 534.160156 244.191406 C 508.871094 222.914062 480.40625 206.316406 449.566406 194.851562 C 417.640625 182.984375 384.03125 176.96875 349.671875 176.96875 C 310.96875 176.96875 273.421875 184.546875 238.066406 199.503906 C 203.921875 213.9375 173.261719 234.613281 146.933594 260.9375 C 120.605469 287.261719 99.929688 317.917969 85.492188 352.0625 C 70.53125 387.414062 62.953125 424.957031 62.953125 463.65625 C 62.953125 502.355469 70.53125 539.898438 85.492188 575.25 C 99.929688 609.390625 120.605469 640.046875 146.933594 666.375 C 173.261719 692.699219 203.921875 713.375 238.066406 727.808594 C 273.421875 742.765625 310.96875 750.347656 349.671875 750.347656 C 390.601562 750.347656 430.015625 741.9375 466.945312 725.339844 C 469.726562 728.496094 472.601562 731.582031 475.601562 734.574219 C 482.996094 741.976562 490.902344 748.699219 499.265625 754.746094 C 453.226562 778.417969 401.839844 790.867188 349.671875 790.867188 C 169.226562 790.867188 22.425781 644.082031 22.425781 463.65625 C 22.425781 294.113281 154.667969 150.839844 323.488281 137.476562 C 332.101562 136.792969 340.910156 136.445312 349.671875 136.445312 C 358.433594 136.445312 367.238281 136.792969 375.859375 137.476562 C 527.292969 149.460938 649.914062 264.210938 673.007812 412.941406 " fill-opacity="1" fill-rule="nonzero"/><path fill="rgb(88.62915%, 90.979004%, 96.469116%)" d="M 542.804688 556.617188 L 621.289062 635.097656 L 583.144531 673.234375 C 561.503906 694.871094 526.296875 694.871094 504.65625 673.234375 C 494.226562 662.808594 488.480469 648.871094 488.480469 634 C 488.480469 619.125 494.226562 605.1875 504.65625 594.761719 L 542.804688 556.617188 " fill-opacity="1" fill-rule="nonzero"/><path fill="rgb(88.62915%, 90.979004%, 96.469116%)" d="M 610.449219 403.433594 C 585.089844 403.730469 560.480469 408.835938 537.265625 418.65625 C 516.886719 427.273438 498.339844 439.175781 482.027344 454.089844 L 386.34375 454.089844 C 382.894531 440.871094 372.460938 430.441406 359.238281 426.988281 L 359.238281 287.484375 C 359.238281 282.203125 354.953125 277.917969 349.671875 277.917969 C 344.386719 277.917969 340.105469 282.203125 340.105469 287.484375 L 340.105469 426.988281 C 323.824219 431.242188 311.773438 446.0625 311.773438 463.65625 C 311.773438 484.550781 328.773438 501.546875 349.671875 501.546875 C 367.265625 501.546875 382.089844 489.5 386.34375 473.222656 L 463.726562 473.222656 C 451.472656 487.894531 441.507812 504.191406 434.023438 521.886719 C 423.902344 545.808594 418.773438 571.214844 418.773438 597.402344 C 418.773438 623.589844 423.902344 648.992188 434.023438 672.914062 C 439.566406 686.019531 446.464844 698.359375 454.648438 709.839844 C 421.488281 724.023438 386.230469 731.210938 349.671875 731.210938 C 202.121094 731.210938 82.089844 611.1875 82.089844 463.65625 C 82.089844 316.125 202.121094 196.101562 349.671875 196.101562 C 474.894531 196.101562 582.734375 282.605469 610.449219 403.433594 " fill-opacity="1" fill-rule="nonzero"/><path fill="rgb(41.569519%, 58.428955%, 98.81897%)" d="M 427.675781 19.132812 L 427.675781 55.003906 L 271.667969 55.003906 L 271.667969 19.132812 L 427.675781 19.132812 " fill-opacity="1" fill-rule="nonzero"/><path fill="rgb(41.569519%, 58.428955%, 98.81897%)" d="M 367.046875 74.136719 L 367.046875 117.742188 C 361.273438 117.453125 355.460938 117.3125 349.671875 117.3125 C 343.875 117.3125 338.066406 117.453125 332.292969 117.742188 L 332.292969 74.136719 L 367.046875 74.136719 " fill-opacity="1" fill-rule="nonzero"/><path fill="rgb(41.569519%, 58.428955%, 98.81897%)" d="M 351.410156 444.976562 C 360.941406 445.859375 368.4375 453.898438 368.4375 463.65625 C 368.4375 474 360.015625 482.410156 349.671875 482.410156 C 339.328125 482.410156 330.90625 474 330.90625 463.65625 C 330.90625 453.898438 338.402344 445.859375 347.933594 444.976562 C 348.496094 445.085938 349.074219 445.144531 349.671875 445.144531 C 350.265625 445.144531 350.847656 445.085938 351.410156 444.976562 " fill-opacity="1" fill-rule="nonzero"/></svg>